<svg width="173" height="164" viewBox="0 0 173 164" fill="none" xmlns="http://www.w3.org/2000/svg">
<path d="M58.844 85.084H52.544L51.302 88H48.89L54.56 75.4H56.864L62.552 88H60.104L58.844 85.084ZM58.07 83.248L55.694 77.74L53.336 83.248H58.07ZM64.2984 74.644H66.5484V88H64.2984V74.644ZM76.1141 87.478C75.8501 87.694 75.5261 87.856 75.1421 87.964C74.7701 88.072 74.3741 88.126 73.9541 88.126C72.8981 88.126 72.0821 87.85 71.5061 87.298C70.9301 86.746 70.6421 85.942 70.6421 84.886V80.26H69.0581V78.46H70.6421V76.264H72.8921V78.46H75.4661V80.26H72.8921V84.832C72.8921 85.3 73.0061 85.66 73.2341 85.912C73.4621 86.152 73.7921 86.272 74.2241 86.272C74.7281 86.272 75.1481 86.14 75.4841 85.876L76.1141 87.478ZM78.325 78.388H80.575V88H78.325V78.388ZM89.3421 78.28C90.5541 78.28 91.5261 78.634 92.2581 79.342C92.9901 80.05 93.3561 81.1 93.3561 82.492V88H91.1061V82.78C91.1061 81.94 90.9081 81.31 90.5121 80.89C90.1161 80.458 89.5521 80.242 88.8201 80.242C87.9921 80.242 87.3381 80.494 86.8581 80.998C86.3781 81.49 86.1381 82.204 86.1381 83.14V88H83.8881V78.388H86.0301V79.63C86.4021 79.186 86.8701 78.85 87.4341 78.622C87.9981 78.394 88.6341 78.28 89.3421 78.28ZM107.557 83.554V88H105.217V83.59L100.267 75.4H102.769L106.459 81.538L110.185 75.4H112.489L107.557 83.554ZM116.66 78.28C118.076 78.28 119.156 78.622 119.9 79.306C120.656 79.978 121.034 80.998 121.034 82.366V88H118.91V86.83C118.634 87.25 118.238 87.574 117.722 87.802C117.218 88.018 116.606 88.126 115.886 88.126C115.166 88.126 114.536 88.006 113.996 87.766C113.456 87.514 113.036 87.172 112.736 86.74C112.448 86.296 112.304 85.798 112.304 85.246C112.304 84.382 112.622 83.692 113.258 83.176C113.906 82.648 114.92 82.384 116.3 82.384H118.784V82.24C118.784 81.568 118.58 81.052 118.172 80.692C117.776 80.332 117.182 80.152 116.39 80.152C115.85 80.152 115.316 80.236 114.788 80.404C114.272 80.572 113.834 80.806 113.474 81.106L112.592 79.468C113.096 79.084 113.702 78.79 114.41 78.586C115.118 78.382 115.868 78.28 116.66 78.28ZM116.354 86.488C116.918 86.488 117.416 86.362 117.848 86.11C118.292 85.846 118.604 85.474 118.784 84.994V83.878H116.462C115.166 83.878 114.518 84.304 114.518 85.156C114.518 85.564 114.68 85.888 115.004 86.128C115.328 86.368 115.778 86.488 116.354 86.488ZM129.609 78.28C130.545 78.28 131.379 78.484 132.111 78.892C132.855 79.3 133.437 79.876 133.857 80.62C134.277 81.364 134.487 82.222 134.487 83.194C134.487 84.166 134.277 85.03 133.857 85.786C133.437 86.53 132.855 87.106 132.111 87.514C131.379 87.922 130.545 88.126 129.609 88.126C128.313 88.126 127.287 87.694 126.531 86.83V91.492H124.281V78.388H126.423V79.648C126.795 79.192 127.251 78.85 127.791 78.622C128.343 78.394 128.949 78.28 129.609 78.28ZM129.357 86.2C130.185 86.2 130.863 85.924 131.391 85.372C131.931 84.82 132.201 84.094 132.201 83.194C132.201 82.294 131.931 81.568 131.391 81.016C130.863 80.464 130.185 80.188 129.357 80.188C128.817 80.188 128.331 80.314 127.899 80.566C127.467 80.806 127.125 81.154 126.873 81.61C126.621 82.066 126.495 82.594 126.495 83.194C126.495 83.794 126.621 84.322 126.873 84.778C127.125 85.234 127.467 85.588 127.899 85.84C128.331 86.08 128.817 86.2 129.357 86.2ZM139.123 79.792C139.771 78.784 140.911 78.28 142.543 78.28V80.422C142.351 80.386 142.177 80.368 142.021 80.368C141.145 80.368 140.461 80.626 139.969 81.142C139.477 81.646 139.231 82.378 139.231 83.338V88H136.981V78.388H139.123V79.792ZM148.431 78.28C149.847 78.28 150.927 78.622 151.671 79.306C152.427 79.978 152.805 80.998 152.805 82.366V88H150.681V86.83C150.405 87.25 150.009 87.574 149.493 87.802C148.989 88.018 148.377 88.126 147.657 88.126C146.937 88.126 146.307 88.006 145.767 87.766C145.227 87.514 144.807 87.172 144.507 86.74C144.219 86.296 144.075 85.798 144.075 85.246C144.075 84.382 144.393 83.692 145.029 83.176C145.677 82.648 146.691 82.384 148.071 82.384H150.555V82.24C150.555 81.568 150.351 81.052 149.943 80.692C149.547 80.332 148.953 80.152 148.161 80.152C147.621 80.152 147.087 80.236 146.559 80.404C146.043 80.572 145.605 80.806 145.245 81.106L144.363 79.468C144.867 79.084 145.473 78.79 146.181 78.586C146.889 78.382 147.639 78.28 148.431 78.28ZM148.125 86.488C148.689 86.488 149.187 86.362 149.619 86.11C150.063 85.846 150.375 85.474 150.555 84.994V83.878H148.233C146.937 83.878 146.289 84.304 146.289 85.156C146.289 85.564 146.451 85.888 146.775 86.128C147.099 86.368 147.549 86.488 148.125 86.488ZM159.977 83.878L158.303 85.462V88H156.053V74.644H158.303V82.708L162.965 78.388H165.665L161.651 82.42L166.043 88H163.307L159.977 83.878Z" fill="#868686" fill-opacity="0.4"/>
<g clip-path="url(#clip0_322:20)">
<path d="M36.3987 82.0164L32.0313 80.5244C30.2884 79.9289 28.3731 80.0482 26.7218 80.855C25.0708 81.6621 23.825 83.0874 23.269 84.8064L22.1263 88.3391L21.0012 89.1626V81.7852C20.9999 80.802 21.5036 79.8833 22.3423 79.339L21.7597 78.4862C20.6288 79.2207 19.9497 80.4591 19.9513 81.7852V82.8004L19.2725 82.1378L18.5302 82.8625L19.9513 84.2498V95.5083L18.9013 94.9958V93.9415C18.9011 91.3635 17.6314 88.9424 15.489 87.4349C13.3463 85.9277 10.5923 85.5176 8.08685 86.3331L5.61117 87.1386C5.3956 87.208 5.25 87.4042 5.25 87.6256C5.25 87.8471 5.3956 88.0433 5.61117 88.1126L6.17331 88.2955C8.8679 89.1701 11.3823 90.5049 13.5991 92.2376L18.0482 95.7123C18.0782 95.7328 18.1108 95.75 18.1449 95.7636L18.1415 95.7703L19.9513 96.6544V97.8751H21.0012V90.4439L22.8909 89.06L22.8853 89.053C22.9068 89.0408 22.9276 89.0272 22.9473 89.0125C26.2717 85.7776 30.6012 83.7103 35.2577 83.1345L36.2905 83.0086C36.5322 82.9788 36.7211 82.7907 36.747 82.5542C36.7729 82.3177 36.6286 82.095 36.3987 82.0164Z" fill="#868686" fill-opacity="0.4"/>
<path d="M25.4473 71.4654L25.2012 67.6059C25.1855 67.3631 24.9974 67.1644 24.7505 67.1302C24.5045 67.0981 24.2684 67.2375 24.1833 67.4655L22.4853 72.1045C21.8504 73.8374 21.5259 75.6642 21.5264 77.5048V78.9127C21.5264 79.1199 21.6543 79.3068 21.8504 79.3861C22.0465 79.4652 22.2723 79.4214 22.4225 79.275C24.5311 77.2157 25.6328 74.3717 25.4473 71.4654Z" fill="#868686" fill-opacity="0.4"/>
<path d="M13.0913 73.9188L9.61767 72.7914C9.43824 72.7328 9.24035 72.7731 9.09962 72.8968C8.95915 73.0206 8.89763 73.2086 8.9389 73.389L9.51642 75.932C10.441 80.0813 14.213 83.0334 18.5627 83.0126H18.9013C19.1912 83.0126 19.4263 82.7832 19.4263 82.5001C19.4296 78.6058 16.8765 75.1477 13.0913 73.9188Z" fill="#868686" fill-opacity="0.4"/>
<path d="M15.6727 80.7577C13.661 79.5491 12.012 77.8434 10.8918 75.8132L9.23613 72.8102C9.00723 72.9066 8.88188 73.1493 8.93904 73.3863L9.51656 75.9293C10.4401 80.0798 14.2123 83.0332 18.5628 83.0127H18.9015C19.0209 83.0107 19.1358 82.9684 19.2267 82.8928L15.6727 80.7577Z" fill="#3D3D3D" fill-opacity="0.3"/>
<path d="M26.8901 84.3964C25.784 85.1674 24.9096 86.2135 24.3577 87.4259L24.115 87.9589C27.2664 85.3218 31.1401 83.6442 35.2576 83.1337L36.2578 83.0128H31.3157C29.7287 83.0123 28.1815 83.4963 26.8901 84.3964Z" fill="#3D3D3D" fill-opacity="0.3"/>
<path d="M18.6514 96.02L18.6409 95.9637C17.5968 90.3572 12.3707 86.4354 6.55243 86.8923L6.30815 86.9114L5.61117 87.1383C5.3956 87.2076 5.25 87.4038 5.25 87.6253C5.25 87.8468 5.3956 88.043 5.61117 88.112L6.17331 88.2952C8.8679 89.1701 11.3823 90.5049 13.5991 92.2378L18.0482 95.7124C18.0782 95.733 18.1108 95.7502 18.1449 95.7637L18.1415 95.7705L18.6514 96.02Z" fill="#3D3D3D" fill-opacity="0.3"/>
</g>
<path d="M42 82.5C42 93.8218 32.598 103 21 103C9.40202 103 0 93.8218 0 82.5C0 71.1782 9.40202 62 21 62C32.598 62 42 71.1782 42 82.5ZM1.57755 82.5C1.57755 92.9713 10.2733 101.46 21 101.46C31.7267 101.46 40.4225 92.9713 40.4225 82.5C40.4225 72.0287 31.7267 63.54 21 63.54C10.2733 63.54 1.57755 72.0287 1.57755 82.5Z" fill="#868686" fill-opacity="0.4"/>
<defs>
<clipPath id="clip0_322:20">
<rect width="31.5" height="30.75" fill="white" transform="translate(5.25 67.125)"/>
</clipPath>
</defs>
</svg>
