<svg width="166" height="164" viewBox="0 0 166 164" fill="none" xmlns="http://www.w3.org/2000/svg">
<path d="M60.1486 86.038V88H50.6986V75.4H59.8966V77.362H53.0386V80.638H59.1226V82.564H53.0386V86.038H60.1486ZM62.9012 74.644H65.1512V88H62.9012V74.644ZM68.4644 78.388H70.7144V88H68.4644V78.388ZM69.5984 76.804C69.1904 76.804 68.8484 76.678 68.5724 76.426C68.2964 76.162 68.1584 75.838 68.1584 75.454C68.1584 75.07 68.2964 74.752 68.5724 74.5C68.8484 74.236 69.1904 74.104 69.5984 74.104C70.0064 74.104 70.3484 74.23 70.6244 74.482C70.9004 74.722 71.0384 75.028 71.0384 75.4C71.0384 75.796 70.9004 76.132 70.6244 76.408C70.3604 76.672 70.0184 76.804 69.5984 76.804ZM79.8055 87.478C79.5415 87.694 79.2175 87.856 78.8335 87.964C78.4615 88.072 78.0655 88.126 77.6455 88.126C76.5895 88.126 75.7735 87.85 75.1975 87.298C74.6215 86.746 74.3335 85.942 74.3335 84.886V80.26H72.7495V78.46H74.3335V76.264H76.5835V78.46H79.1575V80.26H76.5835V84.832C76.5835 85.3 76.6975 85.66 76.9255 85.912C77.1535 86.152 77.4835 86.272 77.9155 86.272C78.4195 86.272 78.8395 86.14 79.1755 85.876L79.8055 87.478ZM90.736 83.248C90.736 83.404 90.724 83.626 90.7 83.914H83.158C83.29 84.622 83.632 85.186 84.184 85.606C84.748 86.014 85.444 86.218 86.272 86.218C87.328 86.218 88.198 85.87 88.882 85.174L90.088 86.56C89.656 87.076 89.11 87.466 88.45 87.73C87.79 87.994 87.046 88.126 86.218 88.126C85.162 88.126 84.232 87.916 83.428 87.496C82.624 87.076 82 86.494 81.556 85.75C81.124 84.994 80.908 84.142 80.908 83.194C80.908 82.258 81.118 81.418 81.538 80.674C81.97 79.918 82.564 79.33 83.32 78.91C84.076 78.49 84.928 78.28 85.876 78.28C86.812 78.28 87.646 78.49 88.378 78.91C89.122 79.318 89.698 79.9 90.106 80.656C90.526 81.4 90.736 82.264 90.736 83.248ZM85.876 80.08C85.156 80.08 84.544 80.296 84.04 80.728C83.548 81.148 83.248 81.712 83.14 82.42H88.594C88.498 81.724 88.204 81.16 87.712 80.728C87.22 80.296 86.608 80.08 85.876 80.08ZM103.992 75.4C105.084 75.4 106.032 75.58 106.836 75.94C107.652 76.3 108.276 76.816 108.708 77.488C109.14 78.16 109.356 78.958 109.356 79.882C109.356 80.794 109.14 81.592 108.708 82.276C108.276 82.948 107.652 83.464 106.836 83.824C106.032 84.184 105.084 84.364 103.992 84.364H101.148V88H98.8079V75.4H103.992ZM103.884 82.384C104.904 82.384 105.678 82.168 106.206 81.736C106.734 81.304 106.998 80.686 106.998 79.882C106.998 79.078 106.734 78.46 106.206 78.028C105.678 77.596 104.904 77.38 103.884 77.38H101.148V82.384H103.884ZM115.421 78.28C116.837 78.28 117.917 78.622 118.661 79.306C119.417 79.978 119.795 80.998 119.795 82.366V88H117.671V86.83C117.395 87.25 116.999 87.574 116.483 87.802C115.979 88.018 115.367 88.126 114.647 88.126C113.927 88.126 113.297 88.006 112.757 87.766C112.217 87.514 111.797 87.172 111.497 86.74C111.209 86.296 111.065 85.798 111.065 85.246C111.065 84.382 111.383 83.692 112.019 83.176C112.667 82.648 113.681 82.384 115.061 82.384H117.545V82.24C117.545 81.568 117.341 81.052 116.933 80.692C116.537 80.332 115.943 80.152 115.151 80.152C114.611 80.152 114.077 80.236 113.549 80.404C113.033 80.572 112.595 80.806 112.235 81.106L111.353 79.468C111.857 79.084 112.463 78.79 113.171 78.586C113.879 78.382 114.629 78.28 115.421 78.28ZM115.115 86.488C115.679 86.488 116.177 86.362 116.609 86.11C117.053 85.846 117.365 85.474 117.545 84.994V83.878H115.223C113.927 83.878 113.279 84.304 113.279 85.156C113.279 85.564 113.441 85.888 113.765 86.128C114.089 86.368 114.539 86.488 115.115 86.488ZM125.184 79.792C125.832 78.784 126.972 78.28 128.604 78.28V80.422C128.412 80.386 128.238 80.368 128.082 80.368C127.206 80.368 126.522 80.626 126.03 81.142C125.538 81.646 125.292 82.378 125.292 83.338V88H123.042V78.388H125.184V79.792ZM134.797 83.878L133.123 85.462V88H130.873V74.644H133.123V82.708L137.785 78.388H140.485L136.471 82.42L140.863 88H138.127L134.797 83.878ZM151.308 83.248C151.308 83.404 151.296 83.626 151.272 83.914H143.73C143.862 84.622 144.204 85.186 144.756 85.606C145.32 86.014 146.016 86.218 146.844 86.218C147.9 86.218 148.77 85.87 149.454 85.174L150.66 86.56C150.228 87.076 149.682 87.466 149.022 87.73C148.362 87.994 147.618 88.126 146.79 88.126C145.734 88.126 144.804 87.916 144 87.496C143.196 87.076 142.572 86.494 142.128 85.75C141.696 84.994 141.48 84.142 141.48 83.194C141.48 82.258 141.69 81.418 142.11 80.674C142.542 79.918 143.136 79.33 143.892 78.91C144.648 78.49 145.5 78.28 146.448 78.28C147.384 78.28 148.218 78.49 148.95 78.91C149.694 79.318 150.27 79.9 150.678 80.656C151.098 81.4 151.308 82.264 151.308 83.248ZM146.448 80.08C145.728 80.08 145.116 80.296 144.612 80.728C144.12 81.148 143.82 81.712 143.712 82.42H149.166C149.07 81.724 148.776 81.16 148.284 80.728C147.792 80.296 147.18 80.08 146.448 80.08Z" fill="#868686" fill-opacity="0.4"/>
<path d="M21 102C32.598 102 42 92.8218 42 81.5C42 70.1782 32.598 61 21 61C9.40202 61 0 70.1782 0 81.5C0 92.8218 9.40202 102 21 102Z" fill="#868686" fill-opacity="0.44"/>
<path d="M41.993 82.037L30.2715 70.5945L13.7588 72.3359L11.975 92.4054L21.7874 101.984C32.8381 101.586 41.708 92.8547 41.993 82.037Z" fill="#868686" fill-opacity="0.32"/>
<path d="M30.2715 75.239V70.5945H11.975V92.4054H30.2715V87.7609H16.7328V83.8222H30.2715V79.1777H16.7328V75.239H30.2715Z" fill="#F8FFFB"/>
<path d="M21 70.595H30.2712V75.2395H21V70.595Z" fill="#D8D8D8" fill-opacity="0.26"/>
<path d="M21 79.1777H30.2712V83.8223H21V79.1777Z" fill="#D8D8D8" fill-opacity="0.26"/>
<path d="M21 87.7605H30.2712V92.405H21V87.7605Z" fill="#D8D8D8" fill-opacity="0.26"/>
</svg>
