<svg width="45" height="45" viewBox="0 0 45 45" fill="none" xmlns="http://www.w3.org/2000/svg">
<path d="M38.4375 20.625H35.625V13.125C35.625 11.0625 33.9375 9.375 31.875 9.375H24.375V6.5625C24.375 3.975 22.275 1.875 19.6875 1.875C17.1 1.875 15 3.975 15 6.5625V9.375H7.5C5.4375 9.375 3.76875 11.0625 3.76875 13.125V20.25H6.5625C9.35625 20.25 11.625 22.5187 11.625 25.3125C11.625 28.1063 9.35625 30.375 6.5625 30.375H3.75V37.5C3.75 39.5625 5.4375 41.25 7.5 41.25H14.625V38.4375C14.625 35.6437 16.8938 33.375 19.6875 33.375C22.4813 33.375 24.75 35.6437 24.75 38.4375V41.25H31.875C33.9375 41.25 35.625 39.5625 35.625 37.5V30H38.4375C41.025 30 43.125 27.9 43.125 25.3125C43.125 22.725 41.025 20.625 38.4375 20.625Z" fill="white"/>
</svg>
