<svg width="167" height="38" viewBox="0 0 167 38" fill="none" xmlns="http://www.w3.org/2000/svg">
<path d="M20.6266 8.8V27.12C20.6266 30.8267 19.7599 33.56 18.0266 35.32C16.2932 37.1067 13.6932 38 10.2266 38C8.33323 38 6.5199 37.72 4.78656 37.16C3.0799 36.6267 1.6799 35.8533 0.586563 34.84L2.46656 31.88C3.3999 32.7333 4.5199 33.4 5.82656 33.88C7.1599 34.36 8.5599 34.6 10.0266 34.6C12.3466 34.6 14.0532 34.0133 15.1466 32.84C16.2399 31.6933 16.7866 29.92 16.7866 27.52V25.96C16.0132 26.9733 15.0132 27.76 13.7866 28.32C12.5599 28.8533 11.2266 29.12 9.78656 29.12C6.9599 29.12 4.73323 28.3467 3.10656 26.8C1.4799 25.2533 0.666563 22.96 0.666563 19.92V8.8H4.50656V19.48C4.50656 21.5067 4.9999 23.0533 5.98656 24.12C6.97323 25.16 8.38656 25.68 10.2266 25.68C12.2532 25.68 13.8532 25.0667 15.0266 23.84C16.1999 22.6133 16.7866 20.88 16.7866 18.64V8.8H20.6266ZM37.0169 30.24C34.9102 30.24 33.0169 29.7733 31.3369 28.84C29.6569 27.9067 28.3369 26.6267 27.3769 25C26.4435 23.3467 25.9769 21.48 25.9769 19.4C25.9769 17.32 26.4435 15.4667 27.3769 13.84C28.3369 12.1867 29.6569 10.9067 31.3369 10C33.0169 9.06667 34.9102 8.6 37.0169 8.6C39.1235 8.6 41.0035 9.06667 42.6569 10C44.3369 10.9067 45.6435 12.1867 46.5769 13.84C47.5369 15.4667 48.0169 17.32 48.0169 19.4C48.0169 21.48 47.5369 23.3467 46.5769 25C45.6435 26.6267 44.3369 27.9067 42.6569 28.84C41.0035 29.7733 39.1235 30.24 37.0169 30.24ZM37.0169 26.88C38.3769 26.88 39.5902 26.5733 40.6569 25.96C41.7502 25.32 42.6035 24.44 43.2169 23.32C43.8302 22.1733 44.1369 20.8667 44.1369 19.4C44.1369 17.9333 43.8302 16.64 43.2169 15.52C42.6035 14.3733 41.7502 13.4933 40.6569 12.88C39.5902 12.2667 38.3769 11.96 37.0169 11.96C35.6569 11.96 34.4302 12.2667 33.3369 12.88C32.2702 13.4933 31.4169 14.3733 30.7769 15.52C30.1635 16.64 29.8569 17.9333 29.8569 19.4C29.8569 20.8667 30.1635 22.1733 30.7769 23.32C31.4169 24.44 32.2702 25.32 33.3369 25.96C34.4302 26.5733 35.6569 26.88 37.0169 26.88ZM57.0075 12.36C57.6742 11.1333 58.6608 10.2 59.9675 9.56C61.2742 8.92 62.8608 8.6 64.7275 8.6V12.32C64.5142 12.2933 64.2208 12.28 63.8475 12.28C61.7675 12.28 60.1275 12.9067 58.9275 14.16C57.7542 15.3867 57.1675 17.1467 57.1675 19.44V30H53.3275V8.8H57.0075V12.36ZM89.4938 8.8V30H85.8538V26.8C85.0804 27.8933 84.0538 28.7467 82.7738 29.36C81.5204 29.9467 80.1471 30.24 78.6538 30.24C75.8271 30.24 73.6004 29.4667 71.9737 27.92C70.3471 26.3467 69.5338 24.04 69.5338 21V8.8H73.3738V20.56C73.3738 22.6133 73.8671 24.1733 74.8538 25.24C75.8404 26.28 77.2538 26.8 79.0938 26.8C81.1204 26.8 82.7204 26.1867 83.8938 24.96C85.0671 23.7333 85.6538 22 85.6538 19.76V8.8H89.4938ZM102.884 30.24C101.151 30.24 99.4841 30.0133 97.8841 29.56C96.2841 29.08 95.0307 28.48 94.1241 27.76L95.7241 24.72C96.6574 25.3867 97.7907 25.92 99.1241 26.32C100.457 26.72 101.804 26.92 103.164 26.92C106.524 26.92 108.204 25.96 108.204 24.04C108.204 23.4 107.977 22.8933 107.524 22.52C107.071 22.1467 106.497 21.88 105.804 21.72C105.137 21.5333 104.177 21.3333 102.924 21.12C101.217 20.8533 99.8174 20.5467 98.7241 20.2C97.6574 19.8533 96.7374 19.2667 95.9641 18.44C95.1907 17.6133 94.8041 16.4533 94.8041 14.96C94.8041 13.04 95.6041 11.5067 97.2041 10.36C98.8041 9.18667 100.951 8.6 103.644 8.6C105.057 8.6 106.471 8.77333 107.884 9.12C109.297 9.46667 110.457 9.93333 111.364 10.52L109.724 13.56C107.991 12.44 105.951 11.88 103.604 11.88C101.977 11.88 100.737 12.1467 99.8841 12.68C99.0307 13.2133 98.6041 13.92 98.6041 14.8C98.6041 15.4933 98.8441 16.04 99.3241 16.44C99.8041 16.84 100.391 17.1333 101.084 17.32C101.804 17.5067 102.804 17.72 104.084 17.96C105.791 18.2533 107.164 18.5733 108.204 18.92C109.271 19.24 110.177 19.8 110.924 20.6C111.671 21.4 112.044 22.52 112.044 23.96C112.044 25.88 111.217 27.4133 109.564 28.56C107.937 29.68 105.711 30.24 102.884 30.24ZM125.923 30.24C123.816 30.24 121.923 29.7733 120.243 28.84C118.563 27.9067 117.243 26.6267 116.283 25C115.35 23.3467 114.883 21.48 114.883 19.4C114.883 17.32 115.35 15.4667 116.283 13.84C117.243 12.1867 118.563 10.9067 120.243 10C121.923 9.06667 123.816 8.6 125.923 8.6C128.03 8.6 129.91 9.06667 131.563 10C133.243 10.9067 134.55 12.1867 135.483 13.84C136.443 15.4667 136.923 17.32 136.923 19.4C136.923 21.48 136.443 23.3467 135.483 25C134.55 26.6267 133.243 27.9067 131.563 28.84C129.91 29.7733 128.03 30.24 125.923 30.24ZM125.923 26.88C127.283 26.88 128.496 26.5733 129.563 25.96C130.656 25.32 131.51 24.44 132.123 23.32C132.736 22.1733 133.043 20.8667 133.043 19.4C133.043 17.9333 132.736 16.64 132.123 15.52C131.51 14.3733 130.656 13.4933 129.563 12.88C128.496 12.2667 127.283 11.96 125.923 11.96C124.563 11.96 123.336 12.2667 122.243 12.88C121.176 13.4933 120.323 14.3733 119.683 15.52C119.07 16.64 118.763 17.9333 118.763 19.4C118.763 20.8667 119.07 22.1733 119.683 23.32C120.323 24.44 121.176 25.32 122.243 25.96C123.336 26.5733 124.563 26.88 125.923 26.88ZM149.434 3.24C147.14 3.24 145.994 4.48 145.994 6.96V8.8H152.194V11.96H146.074V30H142.234V6.92C142.234 4.81333 142.847 3.14667 144.074 1.92C145.3 0.693332 147.02 0.079999 149.234 0.079999C150.087 0.079999 150.887 0.186666 151.634 0.4C152.38 0.613332 153.02 0.919998 153.554 1.32L152.394 4.24C151.514 3.57333 150.527 3.24 149.434 3.24ZM166.948 28.76C166.388 29.24 165.695 29.6133 164.868 29.88C164.042 30.12 163.188 30.24 162.308 30.24C160.175 30.24 158.522 29.6667 157.348 28.52C156.175 27.3733 155.588 25.7333 155.588 23.6V4.16H159.428V8.8H165.508V11.96H159.428V23.44C159.428 24.5867 159.708 25.4667 160.268 26.08C160.855 26.6933 161.682 27 162.748 27C163.922 27 164.922 26.6667 165.748 26L166.948 28.76Z" fill="#5668D1"/>
</svg>
