<svg width="1920" height="1080" viewBox="0 0 1920 1080" fill="none" xmlns="http://www.w3.org/2000/svg">
<g clip-path="url(#clip0)">
<rect width="1920" height="1080" fill="white"/>
<path d="M521 874.155L-179 1515L138.692 815L521 874.155Z" fill="#5668D1"/>
<path d="M231 755.535L201 783L214.615 753L231 755.535Z" fill="#5668D1"/>
<path d="M266.535 630L294 660L264 646.385L266.535 630Z" fill="#5668D1"/>
<path d="M294.268 746.785L333.981 738L307.19 757.173L294.268 746.785Z" fill="#5668D1"/>
<path d="M83.3598 924L246 374L-275 420.479L83.3598 924Z" fill="#1EA5FC"/>
<path d="M223.819 689.111L212.217 659.903L190.498 680.753L223.819 689.111Z" fill="#1EA5FC"/>
<path d="M282.111 686.682L259 707.981L286.249 720.785L282.111 686.682Z" fill="#1EA5FC"/>
<path d="M364 661.365L334 652L336.535 682L364 661.365Z" fill="#1EA5FC"/>
<path d="M1991 1375.15L1741.26 649L1191 1449L1991 1375.15Z" fill="#D0AD99"/>
<path d="M1606 518.231L1596.63 491L1576 521L1606 518.231Z" fill="#D0AD99"/>
<path d="M1548.23 443L1521 452.365L1551 473L1548.23 443Z" fill="#D0AD99"/>
<path d="M1536.6 529.583L1514.87 510.683L1512 546.981L1536.6 529.583Z" fill="#D0AD99"/>
<path d="M2366 1090L1616 340L1956.38 1020.77L2366 1090Z" fill="#FFE598"/>
<path d="M1586 619L1541 574L1561.42 614.846L1586 619Z" fill="#FFE598"/>
<path d="M1643 547L1598 592L1638.85 571.577L1643 547Z" fill="#FFE598"/>
<path d="M1488.5 581L1504.97 642.471L1507.71 596.886L1488.5 581Z" fill="#FFE598"/>
</g>
<defs>
<clipPath id="clip0">
<rect width="1920" height="1080" fill="white"/>
</clipPath>
</defs>
</svg>
