<svg width="33" height="33" viewBox="0 0 33 33" fill="none" xmlns="http://www.w3.org/2000/svg">
<g clip-path="url(#clip0_265:68)">
<path d="M32.9678 9.70209C32.8905 7.94867 32.607 6.74321 32.2008 5.69867C31.7818 4.58991 31.1371 3.59724 30.2925 2.77203C29.4673 1.93397 28.4681 1.28277 27.3722 0.870287C26.3216 0.464103 25.1224 0.180554 23.369 0.103246C21.6025 0.0193901 21.0417 0 16.5613 0C12.081 0 11.5202 0.0193901 9.76019 0.0966986C8.00677 0.174007 6.80132 0.457807 5.75702 0.86374C4.64801 1.28277 3.65534 1.92742 2.83013 2.77203C1.99208 3.59724 1.34112 4.59646 0.928392 5.69237C0.522208 6.74321 0.23866 7.94213 0.161351 9.69554C0.0774955 11.4621 0.0581055 12.0229 0.0581055 16.5032C0.0581055 20.9836 0.0774955 21.5444 0.154804 23.3044C0.232112 25.0578 0.515913 26.2632 0.922097 27.3078C1.34112 28.4165 1.99208 29.4092 2.83013 30.2344C3.65534 31.0725 4.65456 31.7237 5.75048 32.1362C6.80132 32.5423 8.00023 32.8259 9.7539 32.9032C11.5136 32.9808 12.0747 32.9999 16.555 32.9999C21.0354 32.9999 21.5962 32.9808 23.3562 32.9032C25.1096 32.8259 26.315 32.5423 27.3593 32.1362C29.5771 31.2787 31.3305 29.5253 32.188 27.3078C32.5939 26.2569 32.8777 25.0578 32.955 23.3044C33.0323 21.5444 33.0517 20.9836 33.0517 16.5032C33.0517 12.0229 33.0451 11.4621 32.9678 9.70209ZM29.9961 23.1754C29.9251 24.7871 29.6544 25.6574 29.4288 26.2375C28.8743 27.6752 27.7333 28.8162 26.2956 29.3707C25.7154 29.5963 24.8389 29.867 23.2335 29.9378C21.4929 30.0153 20.9709 30.0345 16.5679 30.0345C12.1648 30.0345 11.6362 30.0153 9.90197 29.9378C8.29032 29.867 7.42004 29.5963 6.83985 29.3707C6.12443 29.1063 5.47322 28.6872 4.94465 28.1393C4.3967 27.6042 3.97767 26.9595 3.71326 26.2441C3.48763 25.6639 3.21692 24.7871 3.14616 23.182C3.0686 21.4414 3.04946 20.9191 3.04946 16.5161C3.04946 12.113 3.0686 11.5844 3.14616 9.85041C3.21692 8.23877 3.48763 7.36848 3.71326 6.78829C3.97767 6.07262 4.3967 5.42167 4.9512 4.89285C5.48607 4.34489 6.13072 3.92586 6.84639 3.6617C7.42658 3.43607 8.30342 3.16537 9.90851 3.09435C11.6491 3.01705 12.1714 2.99766 16.5742 2.99766C20.9838 2.99766 21.5058 3.01705 23.2401 3.09435C24.8517 3.16537 25.722 3.43607 26.3022 3.6617C27.0176 3.92586 27.6688 4.34489 28.1974 4.89285C28.7453 5.42796 29.1644 6.07262 29.4288 6.78829C29.6544 7.36848 29.9251 8.24506 29.9961 9.85041C30.0734 11.591 30.0928 12.113 30.0928 16.5161C30.0928 20.9191 30.0734 21.4349 29.9961 23.1754Z" fill="#696969"/>
<path d="M16.5612 8.02612C11.8812 8.02612 8.08398 11.8231 8.08398 16.5034C8.08398 21.1837 11.8812 24.9806 16.5612 24.9806C21.2415 24.9806 25.0385 21.1837 25.0385 16.5034C25.0385 11.8231 21.2415 8.02612 16.5612 8.02612ZM16.5612 22.0024C13.525 22.0024 11.0623 19.5398 11.0623 16.5034C11.0623 13.4669 13.525 11.0044 16.5612 11.0044C19.5977 11.0044 22.0602 13.4669 22.0602 16.5034C22.0602 19.5398 19.5977 22.0024 16.5612 22.0024Z" fill="#696969"/>
<path d="M27.3529 7.69072C27.3529 8.78361 26.4667 9.66976 25.3736 9.66976C24.2807 9.66976 23.3945 8.78361 23.3945 7.69072C23.3945 6.59757 24.2807 5.71167 25.3736 5.71167C26.4667 5.71167 27.3529 6.59757 27.3529 7.69072Z" fill="#696969"/>
</g>
<defs>
<clipPath id="clip0_265:68">
<rect width="33" height="33" fill="white"/>
</clipPath>
</defs>
</svg>
