<svg width="33" height="33" viewBox="0 0 33 33" fill="none" xmlns="http://www.w3.org/2000/svg">
<g clip-path="url(#clip0_265:74)">
<path d="M32.9918 33.0001V32.9987H33V20.8959C33 14.9752 31.7254 10.4143 24.8036 10.4143C21.4761 10.4143 19.2431 12.2403 18.3315 13.9714H18.2352V10.9671H11.6724V32.9987H18.5061V22.0894C18.5061 19.2171 19.0506 16.4396 22.6077 16.4396C26.1126 16.4396 26.1649 19.7176 26.1649 22.2737V33.0001H32.9918Z" fill="#696969"/>
<path d="M0.544434 10.9683H7.38643V32.9999H0.544434V10.9683Z" fill="#696969"/>
<path d="M3.96275 0C1.77513 0 0 1.77513 0 3.96275C0 6.15037 1.77513 7.96263 3.96275 7.96263C6.15037 7.96263 7.9255 6.15037 7.9255 3.96275C7.92412 1.77513 6.149 0 3.96275 0V0Z" fill="#696969"/>
</g>
<defs>
<clipPath id="clip0_265:74">
<rect width="33" height="33" fill="white"/>
</clipPath>
</defs>
</svg>
