<svg width="249" height="60" viewBox="0 0 249 60" fill="none" xmlns="http://www.w3.org/2000/svg">
<path d="M60 30L30 0L43.6154 27.2308L60 30Z" fill="#FFE598"/>
<path d="M60 29.9999L30 59.9999L43.6154 27.2307L60 29.9999Z" fill="#5668D1"/>
<path d="M30 59.9999L43.6154 27.2307L0 29.9999L30 59.9999Z" fill="#1EA5FC"/>
<path d="M43.6154 27.2308L30 0L0 30L43.6154 27.2308Z" fill="#D0AD99"/>
<path d="M101.4 20.8V39.12C101.4 42.8267 100.533 45.56 98.8 47.32C97.0667 49.1067 94.4667 50 91 50C89.1067 50 87.2933 49.72 85.56 49.16C83.8533 48.6267 82.4533 47.8533 81.36 46.84L83.24 43.88C84.1733 44.7333 85.2933 45.4 86.6 45.88C87.9333 46.36 89.3333 46.6 90.8 46.6C93.12 46.6 94.8267 46.0133 95.92 44.84C97.0133 43.6933 97.56 41.92 97.56 39.52V37.96C96.7867 38.9733 95.7867 39.76 94.56 40.32C93.3333 40.8533 92 41.12 90.56 41.12C87.7333 41.12 85.5067 40.3467 83.88 38.8C82.2533 37.2533 81.44 34.96 81.44 31.92V20.8H85.28V31.48C85.28 33.5067 85.7733 35.0533 86.76 36.12C87.7467 37.16 89.16 37.68 91 37.68C93.0267 37.68 94.6267 37.0667 95.8 35.84C96.9733 34.6133 97.56 32.88 97.56 30.64V20.8H101.4ZM117.79 42.24C115.684 42.24 113.79 41.7733 112.11 40.84C110.43 39.9067 109.11 38.6267 108.15 37C107.217 35.3467 106.75 33.48 106.75 31.4C106.75 29.32 107.217 27.4667 108.15 25.84C109.11 24.1867 110.43 22.9067 112.11 22C113.79 21.0667 115.684 20.6 117.79 20.6C119.897 20.6 121.777 21.0667 123.43 22C125.11 22.9067 126.417 24.1867 127.35 25.84C128.31 27.4667 128.79 29.32 128.79 31.4C128.79 33.48 128.31 35.3467 127.35 37C126.417 38.6267 125.11 39.9067 123.43 40.84C121.777 41.7733 119.897 42.24 117.79 42.24ZM117.79 38.88C119.15 38.88 120.364 38.5733 121.43 37.96C122.524 37.32 123.377 36.44 123.99 35.32C124.604 34.1733 124.91 32.8667 124.91 31.4C124.91 29.9333 124.604 28.64 123.99 27.52C123.377 26.3733 122.524 25.4933 121.43 24.88C120.364 24.2667 119.15 23.96 117.79 23.96C116.43 23.96 115.204 24.2667 114.11 24.88C113.044 25.4933 112.19 26.3733 111.55 27.52C110.937 28.64 110.63 29.9333 110.63 31.4C110.63 32.8667 110.937 34.1733 111.55 35.32C112.19 36.44 113.044 37.32 114.11 37.96C115.204 38.5733 116.43 38.88 117.79 38.88ZM137.781 24.36C138.448 23.1333 139.434 22.2 140.741 21.56C142.048 20.92 143.634 20.6 145.501 20.6V24.32C145.288 24.2933 144.994 24.28 144.621 24.28C142.541 24.28 140.901 24.9067 139.701 26.16C138.528 27.3867 137.941 29.1467 137.941 31.44V42H134.101V20.8H137.781V24.36ZM170.267 20.8V42H166.627V38.8C165.854 39.8933 164.827 40.7467 163.547 41.36C162.294 41.9467 160.921 42.24 159.427 42.24C156.601 42.24 154.374 41.4667 152.747 39.92C151.121 38.3467 150.307 36.04 150.307 33V20.8H154.147V32.56C154.147 34.6133 154.641 36.1733 155.627 37.24C156.614 38.28 158.027 38.8 159.867 38.8C161.894 38.8 163.494 38.1867 164.667 36.96C165.841 35.7333 166.427 34 166.427 31.76V20.8H170.267Z" fill="#1EA5FC"/>
<path d="M183.658 42.24C181.924 42.24 180.258 42.0133 178.658 41.56C177.058 41.08 175.804 40.48 174.898 39.76L176.498 36.72C177.431 37.3867 178.564 37.92 179.898 38.32C181.231 38.72 182.578 38.92 183.938 38.92C187.298 38.92 188.978 37.96 188.978 36.04C188.978 35.4 188.751 34.8933 188.298 34.52C187.844 34.1467 187.271 33.88 186.578 33.72C185.911 33.5333 184.951 33.3333 183.698 33.12C181.991 32.8533 180.591 32.5467 179.498 32.2C178.431 31.8533 177.511 31.2667 176.738 30.44C175.964 29.6133 175.578 28.4533 175.578 26.96C175.578 25.04 176.378 23.5067 177.978 22.36C179.578 21.1867 181.724 20.6 184.418 20.6C185.831 20.6 187.244 20.7733 188.658 21.12C190.071 21.4667 191.231 21.9333 192.138 22.52L190.498 25.56C188.764 24.44 186.724 23.88 184.378 23.88C182.751 23.88 181.511 24.1467 180.658 24.68C179.804 25.2133 179.378 25.92 179.378 26.8C179.378 27.4933 179.618 28.04 180.098 28.44C180.578 28.84 181.164 29.1333 181.858 29.32C182.578 29.5067 183.578 29.72 184.858 29.96C186.564 30.2533 187.938 30.5733 188.978 30.92C190.044 31.24 190.951 31.8 191.698 32.6C192.444 33.4 192.818 34.52 192.818 35.96C192.818 37.88 191.991 39.4133 190.338 40.56C188.711 41.68 186.484 42.24 183.658 42.24ZM206.697 42.24C204.59 42.24 202.697 41.7733 201.017 40.84C199.337 39.9067 198.017 38.6267 197.057 37C196.123 35.3467 195.657 33.48 195.657 31.4C195.657 29.32 196.123 27.4667 197.057 25.84C198.017 24.1867 199.337 22.9067 201.017 22C202.697 21.0667 204.59 20.6 206.697 20.6C208.803 20.6 210.683 21.0667 212.337 22C214.017 22.9067 215.323 24.1867 216.257 25.84C217.217 27.4667 217.697 29.32 217.697 31.4C217.697 33.48 217.217 35.3467 216.257 37C215.323 38.6267 214.017 39.9067 212.337 40.84C210.683 41.7733 208.803 42.24 206.697 42.24ZM206.697 38.88C208.057 38.88 209.27 38.5733 210.337 37.96C211.43 37.32 212.283 36.44 212.897 35.32C213.51 34.1733 213.817 32.8667 213.817 31.4C213.817 29.9333 213.51 28.64 212.897 27.52C212.283 26.3733 211.43 25.4933 210.337 24.88C209.27 24.2667 208.057 23.96 206.697 23.96C205.337 23.96 204.11 24.2667 203.017 24.88C201.95 25.4933 201.097 26.3733 200.457 27.52C199.843 28.64 199.537 29.9333 199.537 31.4C199.537 32.8667 199.843 34.1733 200.457 35.32C201.097 36.44 201.95 37.32 203.017 37.96C204.11 38.5733 205.337 38.88 206.697 38.88ZM230.207 15.24C227.914 15.24 226.767 16.48 226.767 18.96V20.8H232.967V23.96H226.847V42H223.007V18.92C223.007 16.8133 223.621 15.1467 224.847 13.92C226.074 12.6933 227.794 12.08 230.007 12.08C230.861 12.08 231.661 12.1867 232.407 12.4C233.154 12.6133 233.794 12.92 234.327 13.32L233.167 16.24C232.287 15.5733 231.301 15.24 230.207 15.24ZM247.722 40.76C247.162 41.24 246.469 41.6133 245.642 41.88C244.815 42.12 243.962 42.24 243.082 42.24C240.949 42.24 239.295 41.6667 238.122 40.52C236.949 39.3733 236.362 37.7333 236.362 35.6V16.16H240.202V20.8H246.282V23.96H240.202V35.44C240.202 36.5867 240.482 37.4667 241.042 38.08C241.629 38.6933 242.455 39 243.522 39C244.695 39 245.695 38.6667 246.522 38L247.722 40.76Z" fill="#5668D1"/>
<path d="M60 30L30 0L43.6154 27.2308L60 30Z" fill="#FFE598"/>
<path d="M60 29.9999L30 59.9999L43.6154 27.2307L60 29.9999Z" fill="#5668D1"/>
<path d="M30 59.9999L43.6154 27.2307L0 29.9999L30 59.9999Z" fill="#1EA5FC"/>
<path d="M43.6154 27.2308L30 0L0 30L43.6154 27.2308Z" fill="#D0AD99"/>
<path d="M101.4 20.8V39.12C101.4 42.8267 100.533 45.56 98.8 47.32C97.0667 49.1067 94.4667 50 91 50C89.1067 50 87.2933 49.72 85.56 49.16C83.8533 48.6267 82.4533 47.8533 81.36 46.84L83.24 43.88C84.1733 44.7333 85.2933 45.4 86.6 45.88C87.9333 46.36 89.3333 46.6 90.8 46.6C93.12 46.6 94.8267 46.0133 95.92 44.84C97.0133 43.6933 97.56 41.92 97.56 39.52V37.96C96.7867 38.9733 95.7867 39.76 94.56 40.32C93.3333 40.8533 92 41.12 90.56 41.12C87.7333 41.12 85.5067 40.3467 83.88 38.8C82.2533 37.2533 81.44 34.96 81.44 31.92V20.8H85.28V31.48C85.28 33.5067 85.7733 35.0533 86.76 36.12C87.7467 37.16 89.16 37.68 91 37.68C93.0267 37.68 94.6267 37.0667 95.8 35.84C96.9733 34.6133 97.56 32.88 97.56 30.64V20.8H101.4ZM117.79 42.24C115.684 42.24 113.79 41.7733 112.11 40.84C110.43 39.9067 109.11 38.6267 108.15 37C107.217 35.3467 106.75 33.48 106.75 31.4C106.75 29.32 107.217 27.4667 108.15 25.84C109.11 24.1867 110.43 22.9067 112.11 22C113.79 21.0667 115.684 20.6 117.79 20.6C119.897 20.6 121.777 21.0667 123.43 22C125.11 22.9067 126.417 24.1867 127.35 25.84C128.31 27.4667 128.79 29.32 128.79 31.4C128.79 33.48 128.31 35.3467 127.35 37C126.417 38.6267 125.11 39.9067 123.43 40.84C121.777 41.7733 119.897 42.24 117.79 42.24ZM117.79 38.88C119.15 38.88 120.364 38.5733 121.43 37.96C122.524 37.32 123.377 36.44 123.99 35.32C124.604 34.1733 124.91 32.8667 124.91 31.4C124.91 29.9333 124.604 28.64 123.99 27.52C123.377 26.3733 122.524 25.4933 121.43 24.88C120.364 24.2667 119.15 23.96 117.79 23.96C116.43 23.96 115.204 24.2667 114.11 24.88C113.044 25.4933 112.19 26.3733 111.55 27.52C110.937 28.64 110.63 29.9333 110.63 31.4C110.63 32.8667 110.937 34.1733 111.55 35.32C112.19 36.44 113.044 37.32 114.11 37.96C115.204 38.5733 116.43 38.88 117.79 38.88ZM137.781 24.36C138.448 23.1333 139.434 22.2 140.741 21.56C142.048 20.92 143.634 20.6 145.501 20.6V24.32C145.288 24.2933 144.994 24.28 144.621 24.28C142.541 24.28 140.901 24.9067 139.701 26.16C138.528 27.3867 137.941 29.1467 137.941 31.44V42H134.101V20.8H137.781V24.36ZM170.267 20.8V42H166.627V38.8C165.854 39.8933 164.827 40.7467 163.547 41.36C162.294 41.9467 160.921 42.24 159.427 42.24C156.601 42.24 154.374 41.4667 152.747 39.92C151.121 38.3467 150.307 36.04 150.307 33V20.8H154.147V32.56C154.147 34.6133 154.641 36.1733 155.627 37.24C156.614 38.28 158.027 38.8 159.867 38.8C161.894 38.8 163.494 38.1867 164.667 36.96C165.841 35.7333 166.427 34 166.427 31.76V20.8H170.267Z" fill="#1EA5FC"/>
<path d="M183.658 42.24C181.924 42.24 180.258 42.0133 178.658 41.56C177.058 41.08 175.804 40.48 174.898 39.76L176.498 36.72C177.431 37.3867 178.564 37.92 179.898 38.32C181.231 38.72 182.578 38.92 183.938 38.92C187.298 38.92 188.978 37.96 188.978 36.04C188.978 35.4 188.751 34.8933 188.298 34.52C187.844 34.1467 187.271 33.88 186.578 33.72C185.911 33.5333 184.951 33.3333 183.698 33.12C181.991 32.8533 180.591 32.5467 179.498 32.2C178.431 31.8533 177.511 31.2667 176.738 30.44C175.964 29.6133 175.578 28.4533 175.578 26.96C175.578 25.04 176.378 23.5067 177.978 22.36C179.578 21.1867 181.724 20.6 184.418 20.6C185.831 20.6 187.244 20.7733 188.658 21.12C190.071 21.4667 191.231 21.9333 192.138 22.52L190.498 25.56C188.764 24.44 186.724 23.88 184.378 23.88C182.751 23.88 181.511 24.1467 180.658 24.68C179.804 25.2133 179.378 25.92 179.378 26.8C179.378 27.4933 179.618 28.04 180.098 28.44C180.578 28.84 181.164 29.1333 181.858 29.32C182.578 29.5067 183.578 29.72 184.858 29.96C186.564 30.2533 187.938 30.5733 188.978 30.92C190.044 31.24 190.951 31.8 191.698 32.6C192.444 33.4 192.818 34.52 192.818 35.96C192.818 37.88 191.991 39.4133 190.338 40.56C188.711 41.68 186.484 42.24 183.658 42.24ZM206.697 42.24C204.59 42.24 202.697 41.7733 201.017 40.84C199.337 39.9067 198.017 38.6267 197.057 37C196.123 35.3467 195.657 33.48 195.657 31.4C195.657 29.32 196.123 27.4667 197.057 25.84C198.017 24.1867 199.337 22.9067 201.017 22C202.697 21.0667 204.59 20.6 206.697 20.6C208.803 20.6 210.683 21.0667 212.337 22C214.017 22.9067 215.323 24.1867 216.257 25.84C217.217 27.4667 217.697 29.32 217.697 31.4C217.697 33.48 217.217 35.3467 216.257 37C215.323 38.6267 214.017 39.9067 212.337 40.84C210.683 41.7733 208.803 42.24 206.697 42.24ZM206.697 38.88C208.057 38.88 209.27 38.5733 210.337 37.96C211.43 37.32 212.283 36.44 212.897 35.32C213.51 34.1733 213.817 32.8667 213.817 31.4C213.817 29.9333 213.51 28.64 212.897 27.52C212.283 26.3733 211.43 25.4933 210.337 24.88C209.27 24.2667 208.057 23.96 206.697 23.96C205.337 23.96 204.11 24.2667 203.017 24.88C201.95 25.4933 201.097 26.3733 200.457 27.52C199.843 28.64 199.537 29.9333 199.537 31.4C199.537 32.8667 199.843 34.1733 200.457 35.32C201.097 36.44 201.95 37.32 203.017 37.96C204.11 38.5733 205.337 38.88 206.697 38.88ZM230.207 15.24C227.914 15.24 226.767 16.48 226.767 18.96V20.8H232.967V23.96H226.847V42H223.007V18.92C223.007 16.8133 223.621 15.1467 224.847 13.92C226.074 12.6933 227.794 12.08 230.007 12.08C230.861 12.08 231.661 12.1867 232.407 12.4C233.154 12.6133 233.794 12.92 234.327 13.32L233.167 16.24C232.287 15.5733 231.301 15.24 230.207 15.24ZM247.722 40.76C247.162 41.24 246.469 41.6133 245.642 41.88C244.815 42.12 243.962 42.24 243.082 42.24C240.949 42.24 239.295 41.6667 238.122 40.52C236.949 39.3733 236.362 37.7333 236.362 35.6V16.16H240.202V20.8H246.282V23.96H240.202V35.44C240.202 36.5867 240.482 37.4667 241.042 38.08C241.629 38.6933 242.455 39 243.522 39C244.695 39 245.695 38.6667 246.522 38L247.722 40.76Z" fill="#5668D1"/>
</svg>
