<svg width="155" height="160" viewBox="0 0 155 160" fill="none" xmlns="http://www.w3.org/2000/svg">
<path d="M18 28L0 46H36L18 28Z" fill="#A71616"/>
<path d="M132 142L114 124V160L132 142Z" fill="#A71616"/>
<path d="M74 28H18L132 142V86.5133L74 28Z" fill="#FE4C4C"/>
<path d="M63.9569 40.603C64.6584 41.3044 65.1487 42.0285 65.4277 42.7752C65.7143 43.5295 65.7822 44.2611 65.6314 44.9701C65.4805 45.6791 65.1109 46.3277 64.5226 46.916C63.9419 47.4968 63.2932 47.8664 62.5767 48.0248C61.8677 48.1756 61.1361 48.1078 60.3818 47.8211C59.6427 47.5345 58.9223 47.0405 58.2209 46.339L56.6257 44.7438L54.4421 46.9274L52.6093 45.0945L60.5289 37.1749L63.9569 40.603ZM59.6125 44.7438C60.1631 45.2944 60.6986 45.5961 61.219 45.6489C61.747 45.6942 62.2297 45.4981 62.6672 45.0606C63.1122 44.6156 63.3083 44.1329 63.2555 43.6124C63.2102 43.0845 62.9123 42.5452 62.3617 41.9946L60.8683 40.5012L58.1191 43.2504L59.6125 44.7438ZM64.5953 57.3521C63.7732 56.5299 63.2075 55.6097 62.8982 54.5915C62.5965 53.5808 62.5664 52.5777 62.8077 51.5821C63.0642 50.5865 63.5808 49.7002 64.3577 48.9233C65.1346 48.1465 66.017 47.6336 67.0051 47.3847C68.0083 47.1358 69.0152 47.1622 70.0259 47.4639C71.0441 47.7731 71.9643 48.3388 72.7864 49.1609C73.6085 49.9831 74.1705 50.8995 74.4722 51.9102C74.7739 52.9209 74.8003 53.9278 74.5514 54.9309C74.31 55.9265 73.8009 56.8128 73.024 57.5896C72.2471 58.3665 71.3571 58.8794 70.354 59.1283C69.3584 59.3697 68.3552 59.3395 67.3445 59.0378C66.3338 58.7361 65.4174 58.1742 64.5953 57.3521ZM66.1566 55.7908C66.6242 56.2584 67.1522 56.5752 67.7405 56.7411C68.3364 56.8995 68.9322 56.892 69.5281 56.7185C70.1315 56.5526 70.6783 56.2245 71.1686 55.7342C71.6588 55.2439 71.9869 54.6971 72.1528 54.0937C72.3263 53.4979 72.3301 52.9058 72.1642 52.3175C72.0058 51.7216 71.6928 51.1899 71.2251 50.7222C70.7575 50.2546 70.2257 49.9416 69.6299 49.7832C69.0416 49.6173 68.4457 49.6173 67.8423 49.7832C67.2465 49.9567 66.7034 50.2885 66.2131 50.7788C65.7229 51.2691 65.391 51.8121 65.2175 52.408C65.0516 53.0114 65.0478 53.611 65.2062 54.2068C65.3722 54.7952 65.6889 55.3231 66.1566 55.7908ZM81.7893 58.4353C82.4907 59.1368 82.981 59.8609 83.2601 60.6076C83.5467 61.3618 83.6146 62.0934 83.4637 62.8024C83.3129 63.5114 82.9433 64.1601 82.355 64.7484C81.7742 65.3292 81.1256 65.6987 80.409 65.8571C79.7 66.008 78.9684 65.9401 78.2142 65.6535C77.475 65.3669 76.7547 64.8728 76.0532 64.1714L74.458 62.5762L72.2745 64.7597L70.4416 62.9269L78.3612 55.0073L81.7893 58.4353ZM77.4448 62.5762C77.9954 63.1268 78.5309 63.4285 79.0514 63.4813C79.5794 63.5265 80.0621 63.3304 80.4995 62.8929C80.9445 62.4479 81.1406 61.9652 81.0878 61.4448C81.0426 60.9168 80.7447 60.3775 80.1941 59.8269L78.7007 58.3335L75.9514 61.0828L77.4448 62.5762ZM81.9672 74.724C80.8359 73.5926 80.2664 72.3971 80.2589 71.1375C80.2589 69.8855 80.8396 68.6787 82.0012 67.5172L86.4361 63.0822L88.269 64.915L83.9019 69.2821C82.4839 70.7001 82.3632 71.9974 83.5398 73.174C84.1131 73.7472 84.7202 74.015 85.3613 73.9773C86.01 73.932 86.7001 73.5436 87.4317 72.812L91.7988 68.4449L93.609 70.2551L89.1741 74.6901C88.0125 75.8516 86.8019 76.4286 85.5424 76.4211C84.2903 76.4211 83.0986 75.8554 81.9672 74.724ZM95.4202 72.0662L97.253 73.8991L90.8268 80.3253L94.7979 84.2964L93.3045 85.7898L87.5006 79.9858L95.4202 72.0662ZM101.308 90.3987L97.6306 86.7217L95.2321 87.7173L93.354 85.8393L104.803 81.4496L106.614 83.2597L102.235 94.7205L100.312 92.7972L101.308 90.3987ZM102.122 88.4301L103.898 84.1422L99.6105 85.9185L102.122 88.4301ZM108.103 100.588L108.782 96.8546L108.691 96.7641L107.096 95.1688L104.89 97.375L103.057 95.5422L110.977 87.6226L114.405 91.0506C115.106 91.7521 115.596 92.4762 115.875 93.2229C116.162 93.9771 116.23 94.7087 116.079 95.4177C115.928 96.1267 115.559 96.7754 114.97 97.3637C114.382 97.952 113.73 98.3178 113.013 98.4611C112.312 98.6044 111.587 98.529 110.841 98.2349L110.071 102.557L108.103 100.588ZM113.115 95.5082C113.56 95.0632 113.756 94.5805 113.703 94.0601C113.658 93.5321 113.36 92.9928 112.809 92.4422L111.316 90.9488L108.555 93.7094L110.049 95.2028C110.599 95.7534 111.139 96.0513 111.667 96.0966C112.195 96.1418 112.677 95.9457 113.115 95.5082Z" fill="white"/>
</svg>
