<svg width="510" height="42" viewBox="0 0 510 42" fill="none" xmlns="http://www.w3.org/2000/svg">
<path d="M152.239 31.5237C114.179 39.4294 38.0597 50.4973 38.0597 31.5237L0 17.9713C12.6866 22.4888 53.2836 27.4581 114.179 11.1955C175.075 -5.06701 210.597 -0.0980249 220.746 4.41929L235.97 14.5831C286.716 13.4537 391.254 11.8726 403.433 14.5831C415.612 17.2936 408.507 22.4887 403.433 24.7475L464.328 14.5831L510 21.3593L479.552 28.1356C474.478 31.5237 446.06 38.3 372.985 38.3C299.91 38.3 332.388 29.265 357.761 24.7475C337.463 27.0062 281.642 32.879 220.746 38.3C159.851 43.721 175.075 31.5237 190.299 24.7475L152.239 31.5237Z" fill="#FFE598"/>
</svg>
