<svg width="173" height="164" viewBox="0 0 173 164" fill="none" xmlns="http://www.w3.org/2000/svg">
<path d="M48.4028 77.38H44.2268V75.4H54.9188V77.38H50.7428V88H48.4028V77.38ZM64.8705 83.248C64.8705 83.404 64.8585 83.626 64.8345 83.914H57.2925C57.4245 84.622 57.7665 85.186 58.3185 85.606C58.8825 86.014 59.5785 86.218 60.4065 86.218C61.4625 86.218 62.3325 85.87 63.0165 85.174L64.2225 86.56C63.7905 87.076 63.2445 87.466 62.5845 87.73C61.9245 87.994 61.1805 88.126 60.3525 88.126C59.2965 88.126 58.3665 87.916 57.5625 87.496C56.7585 87.076 56.1345 86.494 55.6905 85.75C55.2585 84.994 55.0425 84.142 55.0425 83.194C55.0425 82.258 55.2525 81.418 55.6725 80.674C56.1045 79.918 56.6985 79.33 57.4545 78.91C58.2105 78.49 59.0625 78.28 60.0105 78.28C60.9465 78.28 61.7805 78.49 62.5125 78.91C63.2565 79.318 63.8325 79.9 64.2405 80.656C64.6605 81.4 64.8705 82.264 64.8705 83.248ZM60.0105 80.08C59.2905 80.08 58.6785 80.296 58.1745 80.728C57.6825 81.148 57.3825 81.712 57.2745 82.42H62.7285C62.6325 81.724 62.3385 81.16 61.8465 80.728C61.3545 80.296 60.7425 80.08 60.0105 80.08ZM79.5238 78.28C80.7358 78.28 81.6958 78.634 82.4038 79.342C83.1118 80.038 83.4658 81.088 83.4658 82.492V88H81.2158V82.78C81.2158 81.94 81.0298 81.31 80.6578 80.89C80.2858 80.458 79.7518 80.242 79.0558 80.242C78.2998 80.242 77.6938 80.494 77.2378 80.998C76.7818 81.49 76.5538 82.198 76.5538 83.122V88H74.3038V82.78C74.3038 81.94 74.1178 81.31 73.7458 80.89C73.3738 80.458 72.8398 80.242 72.1438 80.242C71.3758 80.242 70.7638 80.488 70.3078 80.98C69.8638 81.472 69.6418 82.186 69.6418 83.122V88H67.3918V78.388H69.5338V79.612C69.8938 79.18 70.3438 78.85 70.8838 78.622C71.4238 78.394 72.0238 78.28 72.6838 78.28C73.4038 78.28 74.0398 78.418 74.5918 78.694C75.1558 78.958 75.5998 79.354 75.9238 79.882C76.3198 79.378 76.8298 78.988 77.4538 78.712C78.0778 78.424 78.7678 78.28 79.5238 78.28ZM90.373 78.28C91.789 78.28 92.869 78.622 93.613 79.306C94.369 79.978 94.747 80.998 94.747 82.366V88H92.623V86.83C92.347 87.25 91.951 87.574 91.435 87.802C90.931 88.018 90.319 88.126 89.599 88.126C88.879 88.126 88.249 88.006 87.709 87.766C87.169 87.514 86.749 87.172 86.449 86.74C86.161 86.296 86.017 85.798 86.017 85.246C86.017 84.382 86.335 83.692 86.971 83.176C87.619 82.648 88.633 82.384 90.013 82.384H92.497V82.24C92.497 81.568 92.293 81.052 91.885 80.692C91.489 80.332 90.895 80.152 90.103 80.152C89.563 80.152 89.029 80.236 88.501 80.404C87.985 80.572 87.547 80.806 87.187 81.106L86.305 79.468C86.809 79.084 87.415 78.79 88.123 78.586C88.831 78.382 89.581 78.28 90.373 78.28ZM90.067 86.488C90.631 86.488 91.129 86.362 91.561 86.11C92.005 85.846 92.317 85.474 92.497 84.994V83.878H90.175C88.879 83.878 88.231 84.304 88.231 85.156C88.231 85.564 88.393 85.888 88.717 86.128C89.041 86.368 89.491 86.488 90.067 86.488ZM105.885 77.362V81.196H111.969V83.176H105.885V88H103.545V75.4H112.743V77.362H105.885ZM118.523 78.28C119.939 78.28 121.019 78.622 121.763 79.306C122.519 79.978 122.897 80.998 122.897 82.366V88H120.773V86.83C120.497 87.25 120.101 87.574 119.585 87.802C119.081 88.018 118.469 88.126 117.749 88.126C117.029 88.126 116.399 88.006 115.859 87.766C115.319 87.514 114.899 87.172 114.599 86.74C114.311 86.296 114.167 85.798 114.167 85.246C114.167 84.382 114.485 83.692 115.121 83.176C115.769 82.648 116.783 82.384 118.163 82.384H120.647V82.24C120.647 81.568 120.443 81.052 120.035 80.692C119.639 80.332 119.045 80.152 118.253 80.152C117.713 80.152 117.179 80.236 116.651 80.404C116.135 80.572 115.697 80.806 115.337 81.106L114.455 79.468C114.959 79.084 115.565 78.79 116.273 78.586C116.981 78.382 117.731 78.28 118.523 78.28ZM118.217 86.488C118.781 86.488 119.279 86.362 119.711 86.11C120.155 85.846 120.467 85.474 120.647 84.994V83.878H118.325C117.029 83.878 116.381 84.304 116.381 85.156C116.381 85.564 116.543 85.888 116.867 86.128C117.191 86.368 117.641 86.488 118.217 86.488ZM131.473 78.28C132.409 78.28 133.243 78.484 133.975 78.892C134.719 79.3 135.301 79.876 135.721 80.62C136.141 81.364 136.351 82.222 136.351 83.194C136.351 84.166 136.141 85.03 135.721 85.786C135.301 86.53 134.719 87.106 133.975 87.514C133.243 87.922 132.409 88.126 131.473 88.126C130.813 88.126 130.207 88.012 129.655 87.784C129.115 87.556 128.659 87.214 128.287 86.758V88H126.145V74.644H128.395V79.558C128.779 79.138 129.229 78.82 129.745 78.604C130.273 78.388 130.849 78.28 131.473 78.28ZM131.221 86.2C132.049 86.2 132.727 85.924 133.255 85.372C133.795 84.82 134.065 84.094 134.065 83.194C134.065 82.294 133.795 81.568 133.255 81.016C132.727 80.464 132.049 80.188 131.221 80.188C130.681 80.188 130.195 80.314 129.763 80.566C129.331 80.806 128.989 81.154 128.737 81.61C128.485 82.066 128.359 82.594 128.359 83.194C128.359 83.794 128.485 84.322 128.737 84.778C128.989 85.234 129.331 85.588 129.763 85.84C130.195 86.08 130.681 86.2 131.221 86.2ZM140.987 79.792C141.635 78.784 142.775 78.28 144.407 78.28V80.422C144.215 80.386 144.041 80.368 143.885 80.368C143.009 80.368 142.325 80.626 141.833 81.142C141.341 81.646 141.095 82.378 141.095 83.338V88H138.845V78.388H140.987V79.792ZM146.675 78.388H148.925V88H146.675V78.388ZM147.809 76.804C147.401 76.804 147.059 76.678 146.783 76.426C146.507 76.162 146.369 75.838 146.369 75.454C146.369 75.07 146.507 74.752 146.783 74.5C147.059 74.236 147.401 74.104 147.809 74.104C148.217 74.104 148.559 74.23 148.835 74.482C149.111 74.722 149.249 75.028 149.249 75.4C149.249 75.796 149.111 76.132 148.835 76.408C148.571 76.672 148.229 76.804 147.809 76.804ZM156.649 88.126C155.653 88.126 154.759 87.916 153.967 87.496C153.175 87.076 152.557 86.494 152.113 85.75C151.669 84.994 151.447 84.142 151.447 83.194C151.447 82.246 151.669 81.4 152.113 80.656C152.557 79.912 153.169 79.33 153.949 78.91C154.741 78.49 155.641 78.28 156.649 78.28C157.597 78.28 158.425 78.472 159.133 78.856C159.853 79.24 160.393 79.792 160.753 80.512L159.025 81.52C158.749 81.076 158.401 80.746 157.981 80.53C157.573 80.302 157.123 80.188 156.631 80.188C155.791 80.188 155.095 80.464 154.543 81.016C153.991 81.556 153.715 82.282 153.715 83.194C153.715 84.106 153.985 84.838 154.525 85.39C155.077 85.93 155.779 86.2 156.631 86.2C157.123 86.2 157.573 86.092 157.981 85.876C158.401 85.648 158.749 85.312 159.025 84.868L160.753 85.876C160.381 86.596 159.835 87.154 159.115 87.55C158.407 87.934 157.585 88.126 156.649 88.126ZM166.028 88.126C165.248 88.126 164.486 88.024 163.742 87.82C162.998 87.616 162.404 87.358 161.96 87.046L162.824 85.336C163.256 85.624 163.772 85.858 164.372 86.038C164.984 86.206 165.584 86.29 166.172 86.29C167.516 86.29 168.188 85.936 168.188 85.228C168.188 84.892 168.014 84.658 167.666 84.526C167.33 84.394 166.784 84.268 166.028 84.148C165.236 84.028 164.588 83.89 164.084 83.734C163.592 83.578 163.16 83.308 162.788 82.924C162.428 82.528 162.248 81.982 162.248 81.286C162.248 80.374 162.626 79.648 163.382 79.108C164.15 78.556 165.182 78.28 166.478 78.28C167.138 78.28 167.798 78.358 168.458 78.514C169.118 78.658 169.658 78.856 170.078 79.108L169.214 80.818C168.398 80.338 167.48 80.098 166.46 80.098C165.8 80.098 165.296 80.2 164.948 80.404C164.612 80.596 164.444 80.854 164.444 81.178C164.444 81.538 164.624 81.796 164.984 81.952C165.356 82.096 165.926 82.234 166.694 82.366C167.462 82.486 168.092 82.624 168.584 82.78C169.076 82.936 169.496 83.2 169.844 83.572C170.204 83.944 170.384 84.472 170.384 85.156C170.384 86.056 169.994 86.776 169.214 87.316C168.434 87.856 167.372 88.126 166.028 88.126Z" fill="#868686" fill-opacity="0.4"/>
<g clip-path="url(#clip0_322:22)">
<path d="M38.975 95.326L34.9883 76.1073C34.7586 74.9838 33.7488 74.1758 32.5758 74.1758H26.7663C25.5933 74.1758 24.5834 74.9838 24.3538 76.1073L24.3726 98.1992H36.5617C38.1145 98.1992 39.2794 96.8123 38.975 95.326Z" fill="#BDBDBD" fill-opacity="0.4"/>
<path d="M27.21 69.3711H32.1318V74.1758H27.21V69.3711Z" fill="#EEFAFF"/>
<path d="M9.9834 58.8008H19.8271V64.5664H9.9834V58.8008Z" fill="#EEFAFF"/>
<path d="M26.8088 95.4573C24.8798 82.2782 24.5188 79.8094 22.59 66.6292C22.4177 65.4485 21.3816 64.5664 20.1536 64.5664C18.6599 64.5664 14.0845 64.5664 9.65693 64.5664C8.4322 64.5664 7.39368 65.4457 7.2206 66.6292C7.21838 66.6445 3.26439 93.6627 3.00173 95.4573C2.79009 96.9044 3.94017 98.1992 5.43806 98.1992H24.3725C25.867 98.1992 27.0206 96.908 26.8088 95.4573Z" fill="#868686" fill-opacity="0.4"/>
<path d="M5.61935 71.9076C5.61926 71.9083 5.61927 71.9089 5.6191 71.9096C5.61894 71.9108 5.61869 71.912 5.61844 71.9133L2.18954 95.3442C1.90727 97.2741 3.44314 99 5.43798 99H36.5615C38.6325 99 40.185 97.1509 39.7788 95.1671L38.6149 89.5557C38.5249 89.1223 38.0921 88.8424 37.648 88.9299C37.204 89.0176 36.917 89.4402 37.0069 89.8737L38.1705 95.483C38.3736 96.4748 37.5957 97.3984 36.5615 97.3984H27.2199C27.573 96.7985 27.7287 96.0828 27.6209 95.3441L24.9658 77.2013L25.1581 76.264C25.3106 75.518 25.9869 74.9766 26.7662 74.9766H32.5756C33.3549 74.9766 34.0312 75.518 34.1841 76.2662L35.5414 82.8094C35.6202 83.1892 35.9623 83.4514 36.3446 83.4514C36.3985 83.4514 36.4533 83.4462 36.5083 83.4353C36.9523 83.3475 37.2394 82.925 37.1495 82.4915L35.7926 75.9506C35.5124 74.5799 34.348 73.555 32.9522 73.3969V69.3711C32.9522 68.9288 32.5849 68.5703 32.1318 68.5703H27.21C26.7569 68.5703 26.3897 68.9288 26.3897 69.3711V73.3969C25.6826 73.477 25.0353 73.7795 24.5319 74.2367L23.4021 66.5163C23.1981 65.1185 22.0687 64.0118 20.6475 63.8026V58.8008C20.6475 58.3585 20.2802 58 19.8272 58H9.98341C9.53035 58 9.1631 58.3585 9.1631 58.8008V63.8032C7.7588 64.0144 6.61414 65.1098 6.40857 66.5157L5.61935 71.9076ZM31.3115 70.1719V73.375H28.0302V70.1719H31.3115ZM23.1735 76.2796L23.7502 80.2203L7.32396 71.5866L7.81811 68.2082L23.1735 76.2796ZM25.9966 95.5703C26.103 96.2986 25.6988 96.982 25.0323 97.264L5.0991 86.787L5.59351 83.4087L25.7688 94.0135L25.9966 95.5703ZM21.8273 97.3984H9.18467L15.5058 94.0758L21.8273 97.3984ZM4.85194 88.476L8.58469 90.4379L4.2299 92.7268L4.85194 88.476ZM5.84067 81.7196L6.33499 78.342L24.9037 88.1024L25.4804 92.0431L5.84067 81.7196ZM6.58215 76.653L7.07647 73.2754L24.0386 82.1908L24.6154 86.1319L6.58215 76.653ZM22.8852 74.309L18.4862 71.9968L22.2567 70.0147L22.8852 74.309ZM3.81376 95.5705L3.94156 94.6974L10.3151 91.3473L13.7756 93.1662L5.72418 97.3984H5.43798C4.43949 97.3984 3.67275 96.5345 3.81376 95.5705ZM21.7779 66.7424L22.0095 68.3255L16.756 71.0872L13.2959 69.2685L20.6003 65.4284C21.2154 65.5985 21.6856 66.1106 21.7779 66.7424ZM19.0068 59.6016V63.7656H10.8036V59.6016H19.0068ZM9.65684 65.3672H17.2567L11.5657 68.3591L8.08151 66.5276C8.28093 65.8533 8.92176 65.3672 9.65684 65.3672Z" fill="black" fill-opacity="0.4"/>
<path d="M37.0537 86.9883C37.5068 86.9883 37.874 86.6298 37.874 86.1876C37.874 85.7453 37.5068 85.3868 37.0537 85.3868C36.6007 85.3868 36.2334 85.7453 36.2334 86.1876C36.2334 86.6298 36.6007 86.9883 37.0537 86.9883Z" fill="black" fill-opacity="0.4"/>
</g>
<defs>
<clipPath id="clip0_322:22">
<rect width="42" height="41" fill="white" transform="translate(0 58)"/>
</clipPath>
</defs>
</svg>
